# xmcd
#
# Track frame offsets: 
#        150
#        23576
#        54186
#        82474
#        94397
#        110425
#        121631
#        136781
#        146839
#        162557
#        201627
#        218131
#        233814
#        244050
#
# Disc length: 3443 seconds
#
# Revision: 0
# Processed by: cddbd v1.5.2PL0 Copyright (c) Steve Scherf et al.
# Submitted via: ExactAudioCopy v1.0b1
#
DISCID=c90d710e
DTITLE=B.B. King - Bluer Than Blue
DYEAR=2005
DGENRE=Blues
TTITLE0=You Done Lost Your Good Thing Now
TTITLE1=Outside Help
TTITLE2=Sweet Sixteen
TTITLE3=Paying The Cost To The Boss
TTITLE4=The Letter
TTITLE5=Catfish Blues
TTITLE6=B B Boogie
TTITLE7=Everyday I Have The Blues
TTITLE8=Walkin' And Cryin'
TTITLE9=It's My Own Fault
TTITLE10=How Blue Can You Get
TTITLE11=Precious Lord
TTITLE12=Swing Low Sweet Chariot
TTITLE13=Save A Seat For Me
EXTD=
EXTT0=
EXTT1=
EXTT2=
EXTT3=
EXTT4=
EXTT5=
EXTT6=
EXTT7=
EXTT8=
EXTT9=
EXTT10=
EXTT11=
EXTT12=
EXTT13=
PLAYORDER=
